# xmcd
#
# Track frame offsets: 
#        150
#        1624
#        17864
#        33773
#        51610
#        74655
#        96452
#        108020
#        114283
#        125169
#        149854
#        163481
#        191466
#        209625
#        232265
#
# Disc length: 3234 seconds
#
# Revision: 0
# Processed by: cddbd v1.5.1PL0 Copyright (c) Steve Scherf et al.
# Submitted via: ExactAudioCopy v0.95b2
#
DISCID=e70ca00f
DTITLE=Shawn Colvin - KPFK Studios, "Folkscene" LA, Ca 7 January 1990
DYEAR=1900
DGENRE=
TTITLE0=(Intro)
TTITLE1=Another Long One
TTITLE2=(Interview)
TTITLE3=Shotgun Down the Avalanche
TTITLE4=(Interview)
TTITLE5=Cry Like an Angel
TTITLE6=(Interview)
TTITLE7=(Intro To)
TTITLE8=When I Get To The Border
TTITLE9=(Interview)
TTITLE10=Twilight
TTITLE11=(Interview)
TTITLE12=The Story
TTITLE13=(Interview)
TTITLE14=This Fire Is Burning
EXTD=
EXTT0=
EXTT1=
EXTT2=
EXTT3=
EXTT4=
EXTT5=
EXTT6=
EXTT7=
EXTT8=
EXTT9=
EXTT10=
EXTT11=
EXTT12=
EXTT13=
EXTT14=
PLAYORDER=
